<!-- Generator: Adobe Illustrator 18.0.0, SVG Export Plug-In  -->
<svg version="1.1"
	 xmlns="http://www.w3.org/2000/svg" xmlns:xlink="http://www.w3.org/1999/xlink" xmlns:a="http://ns.adobe.com/AdobeSVGViewerExtensions/3.0/"
	 x="0px" y="0px" width="100px" height="100px" viewBox="0 0 700 454.5" enable-background="new 0 0 700 454.5"
	 xml:space="preserve">
<defs>
</defs>
<g>
	<polygon fill="#D9FFF8" points="569.6,209.1 569.6,314.5 605.6,215.5 609.4,216.9 573.4,315.9 641.1,235.2 644.3,237.8
		576.5,318.6 667.8,265.8 669.8,269.4 578.5,322.1 682.4,303.8 683.1,307.8 579.3,326.1 683.1,344.4 682.4,348.4 578.5,330.1
		669.8,382.8 667.8,386.4 576.5,333.6 644.3,414.4 641.1,417 573.4,336.3 609.4,435.3 605.6,436.7 569.6,337.7 569.6,443.1
		565.5,443.1 565.5,337.7 529.4,436.7 525.6,435.3 561.7,336.3 493.9,417 490.8,414.4 558.5,333.6 467.2,386.4 465.2,382.8
		556.5,330.1 452.7,348.4 452,344.4 555.8,326.1 452,307.8 452.7,303.8 556.5,322.1 465.2,269.4 467.2,265.8 558.5,318.6
		490.8,237.8 493.9,235.2 561.7,315.9 525.6,216.9 529.4,215.5 565.5,314.5 565.5,209.1 	"/>
	<polygon fill="#D9FFF8" points="130.4,209.1 130.4,314.5 166.5,215.5 170.3,216.9 134.2,315.9 202,235.2 205.1,237.8 137.4,318.6
		228.7,265.8 230.7,269.4 139.4,322.1 243.2,303.8 243.9,307.8 140.1,326.1 243.9,344.4 243.2,348.4 139.4,330.1 230.7,382.8
		228.7,386.4 137.4,333.6 205.1,414.4 202,417 134.2,336.3 170.3,435.3 166.5,436.7 130.4,337.7 130.4,443.1 126.3,443.1
		126.3,337.7 90.3,436.7 86.4,435.3 122.5,336.3 54.7,417 51.6,414.4 119.4,333.6 28.1,386.4 26,382.8 117.3,330.1 13.5,348.4
		12.8,344.4 116.6,326.1 12.8,307.8 13.5,303.8 117.3,322.1 26,269.4 28.1,265.8 119.4,318.6 51.6,237.8 54.7,235.2 122.5,315.9
		86.4,216.9 90.3,215.5 126.3,314.5 126.3,209.1 	"/>

		<rect x="354" y="258.6" transform="matrix(-0.9025 0.4307 -0.4307 -0.9025 807.1396 405.8591)" fill="#5C3F25" width="7.2" height="71.4"/>
	<path fill="#5C3F25" d="M322.3,262.9L322.3,262.9c0,1.9,1.6,3.5,3.5,3.5h24c1.9,0,3.5-1.6,3.5-3.5l0,0c0-1.9-1.6-3.5-3.5-3.5h-24
		C323.9,259.4,322.3,261,322.3,262.9z"/>
	<path fill="#21A58D" d="M567.5,212c-63,0-114.1,51.1-114.1,114.1c0,63,51.1,114.1,114.1,114.1v14.3c-70.9,0-128.4-57.5-128.4-128.4
		s57.5-128.4,128.4-128.4C567.5,197.7,567.5,212,567.5,212z M567.5,440.2c63,0,114.1-51.1,114.1-114.1c0-63-51.1-114.1-114.1-114.1
		v-14.3c70.9,0,128.4,57.5,128.4,128.4s-57.5,128.4-128.4,128.4V440.2z"/>
	<path fill="#FC5A29" d="M697.9,276.6c5.8,15.4-1.7,17.2-5.8,18.2c-14-55.8-64.4-97.1-124.5-97.1c-70.9,0-128.4,57.5-128.4,128.4
		c0,4.6,0.2,9,0.7,13.5c-5,0.5-11.7,2.2-11.7-13.5c0-77,62.4-139.4,139.4-139.4C627.1,186.7,677.9,224,697.9,276.6z"/>
	<path fill="#21A58D" d="M128.4,212c-63,0-114.1,51.1-114.1,114.1c0,63,51.1,114.1,114.1,114.1v14.3C57.5,454.5,0,397,0,326.1
		c0-70.9,57.5-128.4,128.4-128.4V212z M128.4,440.2c63,0,114.1-51.1,114.1-114.1c0-63-51.1-114.1-114.1-114.1v-14.3
		c70.9,0,128.4,57.5,128.4,128.4s-57.5,128.4-128.4,128.4V440.2z"/>
	<path fill="#FC5A29" d="M128.4,197.7v-11c59.6,0,110.4,37.3,130.3,89.9c5.8,15.4-1.7,17.2-5.8,18.2
		C238.9,239,188.5,197.7,128.4,197.7L128.4,197.7z"/>
	<path fill="#FC5A29" d="M567.8,332.9l-161.3,7.7c-7.2,0.3-14.7-0.3-21.8-2.1c-6.7-1.7-13.2-4.5-18.9-8.3l-35.7-24.2
		c-4.8-3.3-9.1-7.3-12.9-11.6c-3.7-4.3-7-8.8-10-13.4l-46.9-72.2c-2.6-4-5.6-7.8-9-11.3c-3.1-3.1-6.4-5.8-10-8l-59.1-35.5l7-11.8
		l59.1,35.5c4.6,2.8,8.9,6.2,12.7,10c4.1,4.1,7.7,8.7,10.8,13.5l46.9,72.2c2.7,4.1,5.6,8.2,8.8,11.9c3.1,3.6,6.5,6.8,10.3,9.3
		l35.7,24.2c4.3,2.9,9.3,5,14.6,6.4c5.8,1.5,11.9,2.1,17.8,1.8l161.3-7.7L567.8,332.9z"/>
	<polygon fill="#FC5A29" points="121.8,324 206.1,62.4 219.2,66.6 134.9,328.2 	"/>
	<path fill="#FC5A29" d="M399.1,269.7l-31.4-14.6c-5.4-2.5-10.4-5.9-15-9.7c-4.5-3.7-8.6-7.8-12.3-11.9L280.9,168
		c-3.3-3.6-7-7.1-11-10c-3.6-2.6-7.5-4.8-11.5-6.4l-65.8-26.3l5.1-12.7l65.8,26.3c5.2,2.1,10,4.8,14.5,8.1
		c4.8,3.5,9.2,7.5,13.1,11.9l59.5,65.5c3.5,3.8,7.1,7.5,10.9,10.6c3.7,3.1,7.7,5.8,12,7.8l31.4,14.6L399.1,269.7z"/>
	<polygon fill="#FC5A29" points="366.8,323.7 449.8,142.8 462.3,148.5 379.2,329.4 	"/>
	<polygon fill="#FC5A29" points="446.7,172.9 563.1,310.2 586.9,159.8 600.4,161.9 574.3,327.2 572,341.9 562.3,330.5 436.3,181.8
		"/>
	<path fill="#FC5A29" d="M448.7,167.1c-3.8,0-6.9-3.1-6.9-6.9c0-3.8,3.1-6.9,6.9-6.9h181.1c3.8,0,6.9,3.1,6.9,6.9
		c0,3.8-3.1,6.9-6.9,6.9H448.7z"/>
	<path fill="#5C3F25" d="M455.2,123c22,0.8,56.9-5.3,56.2,5.4c-0.7,10.7-29,10.9-36.8,17.5c-7.8,6.7-28.5,8.3-39-0.6
		c-10.5-8.9-34.1-11.5-35-22.1C399.9,115.7,433.2,122.2,455.2,123z"/>
	<path fill="#5C3F25" d="M278,27.6c-4.3-1.5-9.9-1.5-15,0c-4.3,1.3-7.9,3.5-9.6,6.6l-13.6,25c-1.8,3.2-4.5,6.3-7.7,8.5
		c-3.2,2.2-6.9,3.6-10.7,3.6h-8.7c-3.8,0-6.9-3.1-6.9-6.9c0-3.8,3.1-6.9,6.9-6.9h8.7c0.9,0,1.9-0.4,2.9-1.1c1.4-1,2.7-2.4,3.5-3.8
		l13.6-25c3.6-6.5,10.3-11,17.7-13.2c7.7-2.3,16.6-2.3,23.6,0.2l57.7,20.6c3.6,1.3,5.4,5.2,4.2,8.8c-1.3,3.6-5.2,5.4-8.8,4.2
		L278,27.6z"/>
	<path fill="#5C3F25" d="M179.1,0.7c7.7-1.5,13.8-0.6,18.3,2.9c4.6,3.6,7,9.3,7,17.3l0.2,28.5c0,1.9,0.4,4.2,1.3,6
		c0.2,0.5,0.1,0.7,0.2,0.7l8.1,1.8c3.7,0.8,6,4.5,5.2,8.2c-0.8,3.7-4.5,6-8.2,5.2l-8.1-1.8c-4.4-1-7.5-4-9.4-7.8
		c-1.9-3.7-2.8-8.5-2.8-12.2l-0.2-28.5c0-3.5-0.6-5.6-1.7-6.5c-1.2-0.9-3.6-1-7.2-0.3l-11.1,2.3c-3.7,0.7-7.3-1.7-8.1-5.4
		c-0.7-3.7,1.7-7.3,5.4-8.1L179.1,0.7z"/>
	<path fill="#21A58D" d="M195.2,80.6c5.9,0,9.2,4.8,7.5,10.6l-0.4,1.3H181v-12H195.2L195.2,80.6z M175.8,80.6v12h-14.5v-12H175.8
		L175.8,80.6z M156.1,80.6v12h-14.5v-12H156.1L156.1,80.6z M136.4,80.6v12h-14.5v-12H136.4L136.4,80.6z M116.7,80.6v12H93.2
		l-0.3-1.3c-1.5-5.9,8-10.6,13.8-10.6H116.7L116.7,80.6z M94.6,97.8h22.1v14.5H98.4L94.6,97.8L94.6,97.8z M99.7,117.5h16.9V132
		h-13.2L99.7,117.5L99.7,117.5z M104.9,137.3h11.8v14.5h-8L104.9,137.3L104.9,137.3z M110,157h6.6v11.7c-3.5-1.9-4.9-5-5.8-8.5
		L110,157L110,157z M121.9,170.4V157h14.5v13.9h-8.5C125.5,170.8,123.6,170.7,121.9,170.4L121.9,170.4z M141.6,170.8V157h14.5v13.9
		H141.6L141.6,170.8z M161.3,170.8V157h14.5v11.4c-2.3,1.6-5,2.5-7.6,2.5H161.3L161.3,170.8z M181,162.6V157h2l-1,3.2
		C181.8,161,181.4,161.9,181,162.6L181,162.6z M184.6,151.8H181v-14.5h7.9L184.6,151.8L184.6,151.8z M190.5,132H181v-14.5h13.8
		L190.5,132L190.5,132z M196.4,112.3H181V97.8h19.7L196.4,112.3L196.4,112.3z M175.8,97.8h-14.5v14.5h14.5V97.8L175.8,97.8z
		 M156.1,97.8h-14.5v14.5h14.5V97.8L156.1,97.8z M136.4,97.8h-14.5v14.5h14.5V97.8L136.4,97.8z M175.8,117.5h-14.5V132h14.5V117.5
		L175.8,117.5z M156.1,117.5h-14.5V132h14.5V117.5L156.1,117.5z M136.4,117.5h-14.5V132h14.5V117.5L136.4,117.5z M175.8,137.3h-14.5
		v14.5h14.5V137.3L175.8,137.3z M156.1,137.3h-14.5v14.5h14.5V137.3L156.1,137.3z M121.9,137.3v14.5h14.5v-14.5H121.9z"/>
	<path fill="#5C3F25" d="M593.3,326.1c0-14.2-11.6-25.8-25.8-25.8c-14.2,0-25.7,11.6-25.7,25.8c0,14.2,11.6,25.8,25.7,25.8
		C581.7,351.8,593.3,340.3,593.3,326.1z"/>
	<path fill="#5C3F25" d="M154.1,326.1c0-14.2-11.6-25.8-25.8-25.8s-25.8,11.6-25.8,25.8c0,14.2,11.6,25.8,25.8,25.8
		S154.1,340.3,154.1,326.1z"/>
	<g>
		<path fill="#D9FFF8" d="M373,289.7c-20.3,0-36.8,16.5-36.8,36.8c0,20.3,16.5,36.8,36.8,36.8v11.4c-26.6,0-48.2-21.6-48.2-48.2
			c0-26.6,21.6-48.2,48.2-48.2V289.7z M421.2,326.5c0,26.6-21.6,48.2-48.2,48.2h0v-11.4h0c20.3,0,36.8-16.5,36.8-36.8
			c0-20.3-16.5-36.8-36.8-36.8h0l0-11.4l0,0C399.6,278.3,421.2,299.9,421.2,326.5z"/>
		<polygon fill="#D9FFF8" points="363.2,330.5 330.7,330.5 330.7,322.5 363.5,322.5 340.6,299.1 346.3,293.5 369,316.7 369,284.2
			377,284.2 377,317 400.5,294.1 406,299.8 382.8,322.5 415.3,322.5 415.3,330.5 382.5,330.5 405.4,353.9 399.7,359.5 377,336.3
			377,368.8 369,368.8 369,336 345.6,358.9 340,353.2 		"/>
	</g>

		<rect x="384.8" y="323" transform="matrix(-0.9025 0.4307 -0.4307 -0.9025 893.347 515.1563)" fill="#5C3F25" width="7.2" height="71.4"/>
	<path fill="#5C3F25" d="M382.5,390.4L382.5,390.4c0,1.9,1.6,3.5,3.5,3.5h24c1.9,0,3.5-1.6,3.5-3.5l0,0c0-1.9-1.5-3.4-3.5-3.4h-24
		C384,386.9,382.5,388.5,382.5,390.4z"/>
</g>
</svg>
