<!-- Generator: Adobe Illustrator 18.0.0, SVG Export Plug-In  -->
<svg version="1.1"
	 xmlns="http://www.w3.org/2000/svg" xmlns:xlink="http://www.w3.org/1999/xlink" xmlns:a="http://ns.adobe.com/AdobeSVGViewerExtensions/3.0/"
	 x="0px" y="0px" width="70px" height="54px" viewBox="0 0 700 454.5" enable-background="new 0 0 700 454.5"
	 xml:space="preserve">
<defs>
</defs>
<g>
	<polygon fill="#FF0000" points="134.5,209.1 134.5,314.5 170.6,215.5 174.4,216.9 138.3,315.9 206.1,235.2 209.2,237.8
		141.5,318.6 232.8,265.8 234.8,269.4 143.5,322.1 247.3,303.8 248,307.8 144.2,326.1 248,344.4 247.3,348.4 143.5,330.1
		234.8,382.8 232.8,386.4 141.5,333.6 209.2,414.4 206.1,417 138.3,336.3 174.4,435.3 170.6,436.7 134.5,337.7 134.5,443.1
		130.4,443.1 130.4,337.7 94.4,436.7 90.6,435.3 126.6,336.3 58.8,417 55.7,414.4 123.5,333.6 32.2,386.4 30.2,382.8 121.5,330.1
		17.6,348.4 16.9,344.4 120.7,326.1 16.9,307.8 17.6,303.8 121.5,322.1 30.2,269.4 32.2,265.8 123.5,318.6 55.7,237.8 58.8,235.2
		126.6,315.9 90.6,216.9 94.4,215.5 130.4,314.5 130.4,209.1 	"/>
	<polygon fill="#FF0000" points="573.7,209.1 573.7,314.5 609.7,215.5 613.6,216.9 577.5,315.9 645.3,235.2 648.4,237.8
		580.6,318.6 671.9,265.8 674,269.4 582.7,322.1 686.5,303.8 687.2,307.8 583.4,326.1 687.2,344.4 686.5,348.4 582.7,330.1
		674,382.8 671.9,386.4 580.6,333.6 648.4,414.4 645.3,417 577.5,336.3 613.6,435.3 609.7,436.7 573.7,337.7 573.7,443.1
		569.6,443.1 569.6,337.7 533.5,436.7 529.7,435.3 565.8,336.3 498,417 494.9,414.4 562.6,333.6 471.3,386.4 469.3,382.8
		560.6,330.1 456.8,348.4 456.1,344.4 559.9,326.1 456.1,307.8 456.8,303.8 560.6,322.1 469.3,269.4 471.3,265.8 562.6,318.6
		494.9,237.8 498,235.2 565.8,315.9 529.7,216.9 533.5,215.5 569.6,314.5 569.6,209.1 	"/>

		<rect x="338.8" y="258.6" transform="matrix(0.9025 0.4307 -0.4307 0.9025 160.1333 -118.7627)" fill="#FF0000" width="7.2" height="71.4"/>
	<path fill="#FF0000" d="M374.2,259.4h-24c-1.9,0-3.5,1.6-3.5,3.5l0,0c0,1.9,1.6,3.5,3.5,3.5h24c1.9,0,3.5-1.6,3.5-3.5l0,0
		C377.7,261,376.1,259.4,374.2,259.4z"/>
	<path fill="#FF0000" d="M132.5,197.7c70.9,0,128.4,57.5,128.4,128.4s-57.5,128.4-128.4,128.4v-14.3c63,0,114.1-51.1,114.1-114.1
		c0-63-51.1-114.1-114.1-114.1C132.5,212,132.5,197.7,132.5,197.7z M132.5,454.5C61.6,454.5,4.1,397,4.1,326.1
		s57.5-128.4,128.4-128.4V212c-63,0-114.1,51.1-114.1,114.1c0,63,51.1,114.1,114.1,114.1V454.5z"/>
	<path fill="#FF0000" d="M132.5,186.7c77,0,139.4,62.4,139.4,139.4c0,15.7-6.8,14-11.7,13.5c0.5-4.4,0.7-8.9,0.7-13.5
		c0-70.9-57.5-128.4-128.4-128.4C72.4,197.7,21.9,239,8,294.8c-4.1-1-11.7-2.9-5.8-18.2C22.1,224,72.9,186.7,132.5,186.7z"/>
	<path fill="#FF0000" d="M571.6,197.7c70.9,0,128.4,57.5,128.4,128.4s-57.5,128.4-128.4,128.4v-14.3c63,0,114.1-51.1,114.1-114.1
		c0-63-51.1-114.1-114.1-114.1V197.7z M571.6,454.5c-70.9,0-128.4-57.5-128.4-128.4s57.5-128.4,128.4-128.4V212
		c-63,0-114.1,51.1-114.1,114.1c0,63,51.1,114.1,114.1,114.1V454.5z"/>
	<path fill="#FF0000" d="M571.6,197.7c-60.1,0-110.6,41.3-124.5,97.1c-4.1-1-11.7-2.9-5.8-18.2c20-52.6,70.8-89.9,130.3-89.9
		L571.6,197.7L571.6,197.7z"/>
	<path fill="#FF0000" d="M132.8,319.2l161.3,7.7c5.8,0.3,11.9-0.3,17.8-1.8c5.3-1.4,10.3-3.5,14.6-6.4l35.7-24.2
		c3.8-2.6,7.1-5.8,10.3-9.3c3.2-3.7,6.1-7.7,8.8-11.9l46.9-72.2c3.1-4.8,6.7-9.4,10.8-13.5c3.8-3.8,8.1-7.2,12.7-10l59.1-35.5
		l7,11.8l-59.1,35.5c-3.6,2.2-6.9,4.9-10,8c-3.4,3.4-6.4,7.3-9,11.3l-46.9,72.2c-3,4.6-6.3,9.2-10,13.4c-3.8,4.4-8,8.3-12.9,11.6
		l-35.7,24.2c-5.7,3.9-12.2,6.6-18.9,8.3c-7.1,1.8-14.6,2.5-21.8,2.1l-161.3-7.7L132.8,319.2z"/>
	<polygon fill="#FF0000" points="565.1,328.2 480.8,66.6 493.9,62.4 578.2,324 	"/>
	<path fill="#FF0000" d="M295.2,257.3l31.4-14.6c4.3-2,8.3-4.7,12-7.8c3.8-3.2,7.4-6.8,10.9-10.6l59.5-65.5
		c3.9-4.3,8.3-8.4,13.1-11.9c4.5-3.2,9.3-6,14.5-8.1l65.8-26.3l5.1,12.7l-65.8,26.3c-4,1.6-7.9,3.8-11.5,6.4c-4,2.9-7.7,6.3-11,10
		l-59.5,65.5c-3.7,4.1-7.8,8.2-12.3,11.9c-4.6,3.8-9.6,7.2-15,9.7l-31.4,14.6L295.2,257.3z"/>
	<polygon fill="#FF0000" points="320.8,329.4 237.7,148.5 250.2,142.8 333.2,323.7 	"/>
	<polygon fill="#FF0000" points="263.7,181.8 137.7,330.5 128,341.9 125.7,327.2 99.6,161.9 113.1,159.8 136.9,310.2 253.3,172.9
		"/>
	<path fill="#FF0000" d="M70.2,167.1c-3.8,0-6.9-3.1-6.9-6.9c0-3.8,3.1-6.9,6.9-6.9h181.1c3.8,0,6.9,3.1,6.9,6.9
		c0,3.8-3.1,6.9-6.9,6.9H70.2z"/>
	<path fill="#FF0000" d="M299.5,123.2c-0.9,10.6-24.5,13.2-35,22.1c-10.5,8.9-31.2,7.2-39,0.6c-7.8-6.7-36.1-6.8-36.8-17.5
		c-0.7-10.7,34.2-4.6,56.2-5.4C266.8,122.2,300.1,115.7,299.5,123.2z"/>
	<path fill="#FF0000" d="M364.3,48.2c-3.6,1.3-7.5-0.6-8.8-4.2c-1.3-3.6,0.6-7.5,4.2-8.8l57.7-20.6c7-2.5,15.8-2.5,23.6-0.2
		c7.5,2.2,14.2,6.7,17.7,13.2l13.6,25c0.8,1.4,2,2.8,3.5,3.8c1,0.7,2,1.1,2.9,1.1h8.7c3.8,0,6.9,3.1,6.9,6.9c0,3.8-3.1,6.9-6.9,6.9
		h-8.7c-3.8,0-7.5-1.4-10.7-3.6c-3.2-2.2-5.9-5.3-7.7-8.5l-13.6-25c-1.7-3.1-5.4-5.3-9.6-6.6c-5.1-1.5-10.7-1.6-15,0L364.3,48.2z"/>
	<path fill="#FF0000" d="M532,3c3.7,0.7,6.1,4.3,5.4,8.1c-0.7,3.7-4.4,6.1-8.1,5.4l-11.1-2.3c-3.6-0.7-6-0.6-7.2,0.3
		c-1.1,0.8-1.7,3-1.7,6.5l-0.2,28.5c0,3.7-0.9,8.4-2.8,12.2c-2,3.8-5,6.8-9.4,7.8l-8.1,1.8c-3.7,0.8-7.3-1.5-8.2-5.2
		c-0.8-3.7,1.5-7.4,5.2-8.2l8.1-1.8c0.1,0,0-0.3,0.2-0.7c0.9-1.7,1.3-4.1,1.3-6l0.2-28.5c0.1-8,2.4-13.7,7-17.3
		c4.5-3.5,10.6-4.4,18.3-2.9L532,3z"/>
	<path fill="#FF0000" d="M504.8,80.6H519v12h-21.3l-0.4-1.3C495.5,85.4,498.9,80.6,504.8,80.6L504.8,80.6z M524.2,80.6h14.5v12
		h-14.5V80.6L524.2,80.6z M543.9,80.6h14.5v12h-14.5V80.6L543.9,80.6z M563.6,80.6h14.5v12h-14.5V80.6L563.6,80.6z M583.3,80.6h9.9
		c5.9,0,15.4,4.7,13.8,10.6l-0.3,1.3h-23.4V80.6L583.3,80.6z M605.4,97.8l-3.8,14.5h-18.3V97.8H605.4L605.4,97.8z M600.3,117.5
		l-3.8,14.5h-13.2v-14.5H600.3L600.3,117.5z M595.1,137.3l-3.8,14.5h-8v-14.5H595.1L595.1,137.3z M590,157l-0.8,3.2
		c-0.9,3.5-2.3,6.6-5.8,8.5V157H590L590,157z M578.1,170.4c-1.7,0.3-3.7,0.4-6,0.4h-8.5V157h14.5V170.4L578.1,170.4z M558.4,170.8
		h-14.5V157h14.5V170.8L558.4,170.8z M538.7,170.8h-6.9c-2.6,0-5.3-0.9-7.6-2.5V157h14.5V170.8L538.7,170.8z M519,162.6
		c-0.4-0.8-0.8-1.6-1-2.4l-1-3.2h2L519,162.6L519,162.6z M515.4,151.8l-4.3-14.5h7.9v14.5H515.4L515.4,151.8z M509.5,132l-4.4-14.5
		H519V132H509.5L509.5,132z M503.6,112.3l-4.3-14.5H519v14.5H503.6L503.6,112.3z M524.2,97.8v14.5h14.5V97.8H524.2L524.2,97.8z
		 M543.9,97.8v14.5h14.5V97.8H543.9L543.9,97.8z M563.6,97.8v14.5h14.5V97.8H563.6L563.6,97.8z M524.2,117.5V132h14.5v-14.5H524.2
		L524.2,117.5z M543.9,117.5V132h14.5v-14.5H543.9L543.9,117.5z M563.6,117.5V132h14.5v-14.5H563.6L563.6,117.5z M524.2,137.3v14.5
		h14.5v-14.5H524.2L524.2,137.3z M543.9,137.3v14.5h14.5v-14.5H543.9L543.9,137.3z M563.6,137.3v14.5h14.5v-14.5H563.6z"/>
	<path fill="#FF0000" d="M132.5,351.8c14.2,0,25.7-11.6,25.7-25.8c0-14.2-11.6-25.8-25.7-25.8s-25.8,11.6-25.8,25.8
		C106.7,340.3,118.3,351.8,132.5,351.8z"/>
	<path fill="#FF0000" d="M571.6,351.8c14.2,0,25.8-11.6,25.8-25.8c0-14.2-11.6-25.8-25.8-25.8c-14.2,0-25.8,11.6-25.8,25.8
		C545.9,340.3,557.4,351.8,571.6,351.8z"/>
	<g>
		<path fill="#FF0000" d="M327,278.3c26.6,0,48.2,21.6,48.2,48.2c0,26.6-21.6,48.2-48.2,48.2v-11.4c20.3,0,36.8-16.5,36.8-36.8
			c0-20.3-16.5-36.8-36.8-36.8V278.3z M327,278.3L327,278.3l0,11.4h0c-20.3,0-36.8,16.5-36.8,36.8c0,20.3,16.5,36.8,36.8,36.8h0
			v11.4h0c-26.6,0-48.2-21.6-48.2-48.2C278.8,299.9,300.4,278.3,327,278.3z"/>
		<polygon fill="#FF0000" points="360,353.2 354.4,358.9 331,336 331,368.8 323,368.8 323,336.3 300.3,359.5 294.6,353.9
			317.5,330.5 284.7,330.5 284.7,322.5 317.2,322.5 294,299.8 299.5,294.1 323,317 323,284.2 331,284.2 331,316.7 353.7,293.5
			359.4,299.1 336.5,322.5 369.3,322.5 369.3,330.5 336.8,330.5 		"/>
	</g>

		<rect x="308" y="323" transform="matrix(0.9025 0.4307 -0.4307 0.9025 184.8766 -99.2466)" fill="#FF0000" width="7.2" height="71.4"/>
	<path fill="#FF0000" d="M314.1,386.9h-24c-1.9,0-3.5,1.6-3.5,3.4l0,0c0,1.9,1.6,3.5,3.5,3.5h24c1.9,0,3.5-1.6,3.5-3.5l0,0
		C317.5,388.5,316,386.9,314.1,386.9z"/>
</g>
</svg>
